# xmcd
#
# Track frame offsets: 
#        150
#        11501
#        25466
#        41308
#        55686
#        69475
#        83461
#        95538
#        109545
#        121640
#        134339
#        147632
#        158388
#        170609
#        185463
#        200086
#        210927
#        233338
#
# Disc length: 3305 seconds
#
# Revision: 19
# Processed by: cddbd v1.5.2PL0 Copyright (c) Steve Scherf et al.
# Submitted via: ExactAudioCopy v1.0b1
#
DISCID=de0ce712
DTITLE=Dolly Parton - The Essential Dolly Parton [CD 1)
DYEAR=2005
DGENRE=Country
TTITLE0=Dumb Blonde
TTITLE1=Just Because I'm A Woman
TTITLE2=My Blue Ridge Mountain Boy
TTITLE3=Mule Skinner Blues (Blue Yodel No. 8)
TTITLE4=Joshua
TTITLE5=Coat Of Many Colors
TTITLE6=Touch Your Woman
TTITLE7=My Tennessee Mountain Home
TTITLE8=Jolene
TTITLE9=Please Don't Stop Loving Me
TTITLE10=I Will Always Love You
TTITLE11=Love Is Like A Butterfly
TTITLE12=The Bargain Store
TTITLE13=The Seeker
TTITLE14=We Used To
TTITLE15=All I Can Do
TTITLE16=Light Of A Clear Blue Morning
TTITLE17=It's All Wrong, But It's All Right
EXTD=is 37-track set is it.or the best overview of Parton's career, th
EXTD=n YEAR: 2005
EXTT0=
EXTT1=
EXTT2=
EXTT3=
EXTT4=
EXTT5=
EXTT6=
EXTT7=
EXTT8=
EXTT9=
EXTT10=
EXTT11=
EXTT12=
EXTT13=
EXTT14=
EXTT15=
EXTT16=
EXTT17=
PLAYORDER=
